<svg xmlns="http://www.w3.org/2000/svg" enable-background="new 0 0 2000 2000" viewBox="0 0 2000 2000" id="crescent-moon-and-stars">
  <path fill="#FFF" d="M704.65,680.6c57.4-109.03,156.69-195.97,283.91-234.63c89.17-27.1,180.12-26.86,263.88-4.09
				c4.74,1.29,4.36,8.14-0.5,8.85c-18.41,2.68-36.84,6.8-55.16,12.42c-198.53,61-305.29,269.66-238.88,466.44
				c62.9,186.39,263.01,290.24,452.53,232.64c61.93-18.82,115.2-52.6,157.07-96.18c3.4-3.54,9.24,0.13,7.52,4.73
				c-49.88,132.91-158.2,242.21-303.7,288.09c-251.33,79.25-523.63-63.87-600.74-315.85c-33.25-108.63-25.88-219.98,13.4-317.74"></path>
  <path d="M1129.7,1390.85c-16.12,0-32.29-0.81-48.48-2.43c-63.1-6.32-123.78-24.61-180.37-54.38
				c-56.56-29.75-106-69.36-146.94-117.74c-42.46-50.17-73.73-107.48-92.97-170.33c-16.6-54.25-23.64-110.23-20.92-166.38
				c2.46-50.83,12.83-100.71,30.86-148.44c2-5.3,7.93-7.94,13.19-5.83l0,0c5.07,2.03,7.61,7.75,5.69,12.85
				c-17.3,45.78-27.27,93.63-29.62,142.39c-2.6,53.83,4.15,107.49,20.06,159.51c18.43,60.22,48.4,115.14,89.09,163.22
				c39.25,46.39,86.68,84.39,140.94,112.92c54.29,28.55,112.49,46.1,173,52.16c62.71,6.28,124.97-0.15,185.06-19.1
				c34.96-11.02,68.5-26.07,99.68-44.72c30.32-18.13,58.6-39.78,84.06-64.34c43.61-42.07,79.11-93.08,103.66-148.73
				c-40.74,36.73-89.47,64.3-142.35,80.37c-36,10.94-72.88,16.37-109.57,16.37c-59.14,0-117.81-14.09-171.71-41.88
				c-42.48-21.9-79.88-51.19-111.17-87.07c-32.32-37.06-56.73-79.61-72.55-126.48c-16.68-49.43-23.11-100.37-19.1-151.41
				c3.87-49.32,17.28-96.66,39.84-140.68c22.54-43.99,53.1-82.46,90.82-114.36c39.05-33.02,84.09-57.52,133.9-72.83
				c10.11-3.11,20.38-5.8,30.72-8.05c-77.02-16.38-157.06-12.97-233.05,10.13c-60.89,18.51-116.26,48.45-164.59,89.01
				c-44.18,37.08-80.7,81.46-108.67,132.03c-2.64,4.79-8.65,6.56-13.48,4.01l0,0c-5-2.63-6.85-8.87-4.11-13.81
				c29.16-52.73,67.24-98.99,113.31-137.66c50.42-42.31,108.18-73.55,171.68-92.84c87.82-26.69,180.84-28.17,269.02-4.3
				c6.78,1.84,11.61,8.1,11.19,15.1c-0.42,6.97-5.54,12.54-12.44,13.54c-18.04,2.62-36.1,6.69-53.66,12.09
				c-47.19,14.5-89.86,37.7-126.82,68.96c-35.68,30.18-64.59,66.57-85.9,108.18c-21.35,41.64-34.02,86.41-37.68,133.07
				c-3.79,48.31,2.3,96.56,18.1,143.39c14.97,44.35,38.07,84.62,68.64,119.68c29.61,33.94,65.01,61.67,105.22,82.4
				c82.66,42.62,177.2,51.19,266.2,24.14c58.11-17.66,110.93-50,152.74-93.52c4.85-5.05,12.38-5.97,18.31-2.24
				c5.93,3.74,8.35,10.92,5.89,17.48c-25.46,67.84-66.41,130.23-118.42,180.39c-26.57,25.62-56.07,48.21-87.71,67.12
				c-32.53,19.45-67.51,35.15-103.97,46.64C1227.15,1383.36,1178.68,1390.85,1129.7,1390.85z"></path>
  <path fill="#FFF" d="M1270.56,1382.67c-0.36,46.38-38.15,84.29-84.52,84.8c-14.95,0.16-29.02-3.51-41.31-10.1
			c-1.39-0.74-3.1-0.5-4.2,0.62c-25.98,26.49-62.17,42.91-102.19,42.91c-5.04,0-10.03-0.26-14.93-0.77
			c-16.08,41.74-59.58,71.65-110.73,71.65c-41.38,0-77.76-19.58-98.65-49.16c-0.36-0.51-1.12-0.48-1.44,0.05
			c-18.77,31.21-52.95,52.09-92.02,52.09c-48.01,0-88.66-31.53-102.36-75.04c-4.83,0.78-9.75,1.18-14.75,1.18
			c-33.54,0-63.48-17.96-83.16-46.1c-11.67,6.09-24.92,9.56-38.98,9.64c-46.95,0.26-85.62-37.88-85.96-84.82
			c-0.36-47.51,38.05-86.13,85.48-86.13c12.93,0,25.2,2.87,36.19,8.01c19.53-30.96,50.98-51.03,86.44-51.03
			c11.39,0,22.37,2.07,32.66,5.91c1.99,0.74,4.16-0.46,4.56-2.54c17.18-90.56,96.74-159.03,192.29-159.03
			c80.18,0,149.09,48.21,179.35,117.22c1.16,2.64,3.91,4.25,6.78,3.86c6.3-0.85,12.73-1.29,19.26-1.29
			c57.78,0,107.56,34.23,130.18,83.52c5.36-1.05,10.91-1.61,16.58-1.61C1232.52,1296.51,1270.93,1335.15,1270.56,1382.67z"></path>
  <path d="M720.55,1584.83c-25.47,0-49.7-8.02-70.06-23.2c-17.7-13.19-31.1-30.69-39.09-50.96c-2.65,0.21-5.31,0.31-7.95,0.31
			c-33.09,0-64.14-15.79-86.34-43.61c-11.29,4.62-23.49,7.07-35.75,7.14c-0.18,0-0.36,0-0.54,0c-52.35,0-95.16-42.42-95.55-94.82
			c-0.19-25.66,9.65-49.83,27.73-68.03c18.08-18.21,42.16-28.24,67.82-28.24c11.21,0,22.09,1.9,32.45,5.65
			c9.89-13.66,22.14-25.08,35.79-33.31c16.65-10.05,35.46-15.36,54.39-15.36c9.8,0,19.48,1.39,28.88,4.13
			c21.21-93.03,104.4-159.78,200.63-159.78c80.85,0,154.15,47.34,187.49,120.83c5.95-0.69,11.95-1.04,17.9-1.04
			c29.9,0,58.87,8.62,83.79,24.92c22.13,14.48,40.04,34.29,52.18,57.6c3.58-0.4,7.19-0.61,10.79-0.61c0,0,0.01,0,0.01,0
			c25.65,0,49.72,10.03,67.79,28.24c18.08,18.21,27.92,42.38,27.72,68.06c-0.19,25.08-10.11,48.75-27.94,66.63
			c-17.82,17.88-41.45,27.88-66.54,28.16c-14.47,0.18-28.85-2.98-41.85-9.11c-28.64,27.48-66.08,42.55-105.97,42.55
			c-2.83,0-5.67-0.08-8.51-0.23c-19.94,42.83-66.03,71.12-117.16,71.12c-38.69,0-74.71-15.95-98.79-43.21
			c-9.41,12.31-21.21,22.72-34.66,30.49C761.45,1579.41,741.17,1584.83,720.55,1584.83z M625.19,1488.4l2.61,8.3
			c12.8,40.67,50.07,67.99,92.75,67.99c34.44,0,65.61-17.65,83.39-47.21c1.9-3.17,5.25-5.15,8.94-5.29
			c3.69-0.16,7.19,1.57,9.33,4.59c19.87,28.14,53.68,44.93,90.44,44.93c45.59,0,86.32-26.2,101.34-65.2l2.77-7.19l7.67,0.8
			c4.59,0.48,9.26,0.72,13.89,0.72c36.04,0,69.78-14.17,95.01-39.89c4.21-4.29,10.85-5.29,16.15-2.45
			c11.11,5.96,23.73,9.02,36.44,8.9c40.8-0.45,74.25-34.01,74.56-74.81v0c0.16-20.26-7.61-39.34-21.88-53.72
			c-14.26-14.37-33.26-22.28-53.5-22.28c0,0-0.01,0-0.01,0c-4.91,0-9.84,0.48-14.64,1.42l-7.78,1.53l-3.31-7.21
			c-21.64-47.17-69.15-77.65-121.03-77.65c-5.96,0-11.99,0.4-17.92,1.2c-7.24,0.98-14.37-3.04-17.34-9.79
			c-29.61-67.55-96.39-111.2-170.13-111.2c-89.11,0-165.82,63.44-182.39,150.84c-0.74,3.91-3.15,7.26-6.61,9.21
			c-3.47,1.96-7.61,2.28-11.35,0.89c-9.41-3.51-19.21-5.28-29.16-5.28c-30.94,0-59.34,16.89-77.93,46.34l-4.74,7.51l-8.04-3.76
			c-10.03-4.69-20.77-7.07-31.93-7.07c-20.25,0-39.26,7.92-53.53,22.29c-14.26,14.37-22.04,33.44-21.88,53.7
			c0.31,41.49,34.31,75.05,75.84,74.83c12.14-0.07,23.71-2.93,34.38-8.5l7.84-4.09l5.07,7.25c18.57,26.57,45.88,41.8,74.91,41.8
			c4.39,0,8.82-0.35,13.15-1.05L625.19,1488.4z M821.2,1527.86c0,0.01-0.01,0.01-0.01,0.02
			C821.19,1527.87,821.2,1527.87,821.2,1527.86z"></path>
  <path fill="#FFF" d="M1310.91,597.05l97.04,91.74c0.89,0.84,2.22,1.01,3.28,0.42l116.96-63.89c2.39-1.31,5.06,1.21,3.89,3.67
			l-56.98,120.62c-0.52,1.1-0.28,2.41,0.61,3.25l97.05,91.76c1.98,1.87,0.41,5.19-2.3,4.84l-132.25-17.22
			c-1.21-0.15-2.39,0.48-2.91,1.59l-56.97,120.59c-1.17,2.46-4.81,2-5.31-0.68l-24.76-131.25c-0.23-1.19-1.19-2.11-2.4-2.27
			l-132.28-17.22c-2.71-0.35-3.38-3.95-0.99-5.26l116.96-63.89c1.07-0.58,1.64-1.79,1.42-2.99l-24.76-131.23
			C1305.71,596.94,1308.93,595.18,1310.91,597.05z"></path>
  <path d="M1375.81,966.1c-0.55,0-1.11-0.04-1.67-0.11c-5.55-0.72-9.97-4.89-11.01-10.39l-23.78-126.07l-127.06-16.54
			c-5.54-0.71-9.96-4.89-11-10.39c-1.04-5.5,1.56-11,6.47-13.69l112.34-61.37l-23.78-126.04c-1.04-5.5,1.56-11.01,6.48-13.7
			c4.92-2.69,10.95-1.91,15.02,1.94l93.2,88.12l112.33-61.37c4.9-2.68,10.94-1.91,15.02,1.93c4.07,3.84,5.2,9.83,2.8,14.89
			l-54.73,115.85l93.23,88.14c4.07,3.85,5.19,9.83,2.79,14.89c-2.4,5.06-7.74,7.97-13.29,7.26l-127.02-16.54l-54.72,115.81
			C1385.28,963.28,1380.74,966.1,1375.81,966.1z M1236.98,795.9l110.19,14.35c5.52,0.71,9.94,4.87,10.99,10.36l20.62,109.31
			l47.43-100.38c2.36-5.05,7.71-7.99,13.29-7.28l110.12,14.34l-80.82-76.41c-4.05-3.83-5.18-9.8-2.81-14.84l47.47-100.5
			l-97.41,53.21c-4.92,2.69-10.96,1.91-15.03-1.95l-80.76-76.36l20.61,109.24c1.05,5.51-1.57,11.02-6.5,13.71L1236.98,795.9z
			 M1444.44,838.1l-0.03,0.06C1444.42,838.14,1444.43,838.12,1444.44,838.1z M1344.56,830.21c0.01,0,0.02,0,0.03,0L1344.56,830.21z
			 M1324.74,725.01c-0.01,0-0.01,0.01-0.02,0.01L1324.74,725.01z M1533.03,634.16l-0.01,0.01
			C1533.02,634.16,1533.03,634.16,1533.03,634.16z M1522.98,624.7c0,0.01-0.01,0.01-0.01,0.02L1522.98,624.7z M1303.99,604.37
			C1303.99,604.37,1303.99,604.37,1303.99,604.37L1303.99,604.37z"></path>
  <path fill="#FFF" d="M1602.83,1404.79c10.61,47.78-25.46,90.07-71.41,90.07c-2.37,0-4.71-0.11-7.01-0.33
			c-0.79-0.07-1.5,0.46-1.68,1.24c-8.48,38.01-42.41,66.43-82.98,66.43c-25.82,0-48.95-11.5-64.55-29.68
			c-0.14-0.17-0.38-0.2-0.57-0.08c-13.36,8.74-29.33,13.82-46.48,13.82c-27.74,0-52.38-13.28-67.89-33.84
			c-0.34-0.46-0.92-0.66-1.48-0.52c-6.67,1.62-13.62,2.48-20.77,2.48c-23.86,0-45.56-9.58-61.69-25.22
			c-0.44-0.42-1.11-0.52-1.63-0.21c-6.48,3.85-14.12,5.97-22.26,5.72c-21.49-0.67-38.98-18.11-39.72-39.6
			c-0.7-20.67,13.89-38.07,33.33-41.76c1.28-0.24,2.25-1.26,2.39-2.55c5.06-46.47,43.23-82.59,89.57-82.59
			c12.02,0,23.49,2.43,33.97,6.84c1.43,0.6,3.07-0.08,3.64-1.52c17-42.75,58.75-72.97,107.56-72.97
			c56.97,0,104.34,41.19,113.93,95.41c0.07,0.4,0.51,0.62,0.88,0.44c14.75-7.58,32.4-10.3,50.85-6.05
			C1573.03,1355.9,1597.44,1380.56,1602.83,1404.79z"></path>
  <path d="M1439.75 1572.27c-25.04 0-48.89-9.84-66.61-27.23-13.78 7.41-29.17 11.29-44.98 11.29-15.17 0-29.67-3.47-43.1-10.31-11.15-5.68-21.19-13.63-29.33-23.18-5.81 1.07-11.75 1.61-17.7 1.61-23.57 0-46.09-8.42-64.06-23.84-6.83 2.94-14.27 4.35-21.83 4.12-26.82-.84-48.55-22.5-49.46-49.32-.42-12.33 3.61-24.38 11.35-33.93 6.51-8.04 15.29-13.89 25.09-16.83 7.79-49.69 49.48-86.56 98.91-86.56 10.67 0 21.1 1.7 31.1 5.07 9.43-20.28 24.06-37.64 42.64-50.48 21.05-14.55 45.75-22.24 71.43-22.24 29.73 0 58.58 10.57 81.24 29.76 19.37 16.4 33.31 38.28 40.01 62.49 14.79-5.09 30.72-5.87 46.67-2.19 13.53 3.12 27.35 11.28 38.94 22.97 11.58 11.68 19.61 25.58 22.62 39.13l0 0c5.62 25.34-.28 51.25-16.2 71.1-15.92 19.84-39.62 31.22-65.03 31.22-.23 0-.47 0-.7 0-5.5 17.99-16.37 34.18-31.11 46.14C1482.75 1564.73 1461.49 1572.27 1439.75 1572.27zM1382.85 1525.98c14.28 16.62 35.01 26.15 56.89 26.15 34.82 0 65.58-24.63 73.16-58.56 1.28-5.72 6.63-9.62 12.44-9.07 2.03.19 4.08.28 6.08.28 19.27 0 37.25-8.63 49.33-23.68 12.08-15.05 16.54-34.79 12.25-54.13-4.51-20.29-26.2-42.18-46.42-46.84-15.3-3.52-30.51-1.73-43.98 5.19-3.03 1.54-6.61 1.56-9.61.07-3.01-1.49-5.16-4.34-5.77-7.64l-.01-.07c-8.93-50.47-52.67-87.09-104.01-87.09-43.56 0-82.11 26.15-98.2 66.62-1.31 3.26-3.79 5.77-6.99 7.1-3.2 1.33-6.73 1.32-9.93-.03-9.53-4.01-19.65-6.05-30.05-6.05-40.79 0-74.99 31.65-79.56 73.62-.63 5.72-4.85 10.28-10.52 11.35-15.1 2.86-25.67 16.12-25.15 31.52.55 16.25 13.72 29.37 29.97 29.88 5.94.17 11.75-1.3 16.8-4.31 4.45-2.62 10.1-1.94 13.79 1.63 14.88 14.43 34.3 22.38 54.68 22.38 6.22 0 12.4-.74 18.38-2.2 4.5-1.08 9.17.59 11.92 4.27 14.29 18.93 36.1 29.8 59.83 29.8 14.63 0 28.79-4.21 40.97-12.18l.06-.04C1373.59 1521.14 1379.46 1522 1382.85 1525.98zM1252.22 1518.49c.01.02.03.04.04.06C1252.25 1518.53 1252.24 1518.51 1252.22 1518.49zM1275.87 1325.72c.01 0 .01.01.02.01C1275.88 1325.72 1275.87 1325.72 1275.87 1325.72zM881.5 1454.27L881.5 1454.27c-4.72 0-8.82-3.28-9.83-7.88-3.62-16.67-18.49-29.21-36.23-29.21-1.84 0-3.66.13-5.42.4l-9.79 1.46c-.09.01-.16-.05-.17-.13l-1.47-9.79c-2.96-19.73-12.93-37.85-28.09-51.02-15.3-13.29-34.91-20.61-55.2-20.61-43.39 0-79.22 32.98-83.75 75.18-.55 5.13-4.85 9.05-10.01 9.05l0 0c-6.01 0-10.65-5.22-10.01-11.19 5.6-52.31 50.01-93.18 103.77-93.18 25.15 0 49.44 9.08 68.41 25.55 16.4 14.24 27.9 33.19 33 54.05.01.07.07.11.15.11 26.74.64 49 19.73 54.51 45C892.71 1448.34 887.92 1454.27 881.5 1454.27z"></path>
  <path d="M1359.86 1450.91c-6.79 1.01-12.64-4.93-11.41-11.67 3.07-16.87 16.57-30.72 34.45-33.37 7.49-1.11 14.99-.17 21.82 2.67.06.03.13.01.17-.03 11.07-11.79 25.67-19.47 41.94-21.88 19.09-2.84 38.15 1.92 53.66 13.41 12.34 9.14 21.26 21.67 25.82 36.03 1.88 5.91-1.99 12.09-8.12 13l0 0c-4.91.73-9.58-2.24-11.1-6.97-3.3-10.31-9.72-19.3-18.59-25.88-10.43-7.73-23.08-11.24-35.91-10.01-15.1 1.44-28.76 9.57-37.7 21.82l-5.36 7.34c-.05.07-.15.09-.21.03l-8-5.82c-4.48-3.26-9.96-4.6-15.44-3.79-9.13 1.36-16.03 8.43-17.6 17.05C1367.49 1447.04 1364.09 1450.28 1359.86 1450.91L1359.86 1450.91zM738.55 1087.25c-4.94 2.89-11.27 1.07-13.97-3.98-11.18-20.89-20.63-44.54-27.54-69.05-7.26-25.73-11.53-51.9-12.49-76.33-.23-5.73 4.32-10.52 10.05-10.52h.01c5.38 0 9.85 4.23 10.05 9.61 1.77 45.11 15.75 95.88 37.66 136.77C744.9 1078.55 743.25 1084.51 738.55 1087.25L738.55 1087.25zM694.51 908.38L694.51 908.38c-5.74-.05-10.24-4.89-9.96-10.63.56-11.3 1.85-22.59 3.85-33.73 1.01-5.65 6.49-9.34 12.1-8.11l0 0c5.26 1.16 8.7 6.26 7.75 11.55-1.87 10.37-3.07 20.87-3.58 31.39C704.39 904.24 699.89 908.43 694.51 908.38z"></path>
</svg>
