<svg fill="none" height="800px" width="800px" version="1.1" id="Layer_1" xmlns="http://www.w3.org/2000/svg" xmlns:xlink="http://www.w3.org/1999/xlink" 
	 viewBox="0 0 512 512" xml:space="preserve">
<g>
	<path d="M437.019,74.982C388.667,26.628,324.379,0,256,0S123.334,26.628,74.982,74.982C26.628,123.333,0,187.621,0,256
		c0,54.144,16.71,105.713,47.666,148.847c12.273,16.512,26.512,31.496,42.462,44.659C141.544,492.332,197.256,512,256,512
		c45.527,0,90.237-12.104,129.297-35.005c37.904-22.223,69.663-54.018,91.843-91.947C504.385,328.194,512,292.734,512,256
		C512,187.621,485.372,123.333,437.019,74.982z
		M80.093,344.512c35.247,0,63.924,28.676,63.924,63.923
		c0,18.178-7.518,35.076-20.804,47.178c-35.889-23.953-64.984-57.311-83.732-96.531C50.903,349.65,65.122,344.512,80.093,344.512z
		M264.084,125.019c0-25.045-20.374-45.42-45.419-45.42s-45.419,20.375-45.419,45.42
		c0,25.044,20.374,45.419,45.419,45.419S264.084,150.062,264.084,125.019z
		M380.924,148.637c0-17.482-14.221-31.704-31.702-31.704c-17.482,0-31.704,14.222-31.704,31.704
		c0,17.481,14.222,31.704,31.704,31.704C366.702,180.34,380.924,166.119,380.924,148.637z
		M281.035,351.076c0,28.079,22.844,50.924,50.923,50.924c28.08,0,50.925-22.844,50.925-50.924
		c0-28.08-22.845-50.924-50.925-50.924C303.879,300.152,281.035,322.995,281.035,351.076z
		M135.105,270.096c0,17.259,14.041,31.301,31.299,31.301c17.259,0,31.301-14.042,31.301-31.301
		c0-17.259-14.042-31.3-31.301-31.3C149.146,238.796,135.105,252.836,135.105,270.096z"
		fill="white" fill-rule="evenodd"/>
</g>
</svg>
